<?xml version="1.0" encoding="utf-8"?>
<svg viewBox="0 0 500 500" xmlns="http://www.w3.org/2000/svg">
  <title>male_avatar</title>
  <g transform="matrix(0.710984, 0, 0, 0.703989, -137.340775, 71.046295)" style="">
    <g>
      <path d="M 884.992 250 C 885.053 295.755 875.791 341.042 857.772 383.1 L 856.652 385.68 C 793.928 528.376 641.881 609.805 488.342 582.93 C 486.312 582.57 484.286 582.197 482.262 581.81 C 461.356 577.757 440.883 571.72 421.122 563.78 C 417.912 562.49 414.726 561.153 411.562 559.77 C 409.402 558.83 407.242 557.86 405.102 556.86 C 285.577 501.463 209.062 381.739 208.992 250 C 208.992 63.33 360.322 -88 546.992 -88 C 733.662 -88 884.992 63.33 884.992 250 Z" style="fill: rgb(44, 206, 149);"/>
    </g>
    <path d="M 488.342 582.93 C 486.312 582.57 484.286 582.197 482.262 581.81 C 480.942 543.5 476.412 464.87 460.962 382.52 C 452.512 337.45 440.782 291.25 424.512 249.95 C 418.938 235.66 412.572 221.691 405.442 208.11 C 389.002 177.06 369.062 150.92 344.882 133.21 L 348.442 128.35 C 368.552 143.09 386.626 163.783 402.662 190.43 C 407.472 198.41 412.092 206.923 416.522 215.97 C 421.272 225.65 425.802 235.927 430.112 246.8 C 432.862 253.72 435.519 260.88 438.082 268.28 C 449.242 300.41 458.729 337.07 466.542 378.26 C 468.272 387.36 469.919 396.683 471.482 406.23 C 483.592 480.2 487.242 548.59 488.342 582.93 Z" opacity="0.2"/>
    <path d="M 411.562 559.77 C 409.402 558.83 407.242 557.86 405.102 556.86 C 403.012 534.16 399.172 506 392.152 479.27 C 389.078 467.265 385.131 455.5 380.342 444.07 C 372.332 425.32 361.962 409.38 348.552 399.55 L 352.112 394.7 C 366.152 404.98 376.982 421.23 385.352 440.24 C 394.782 461.66 401.072 486.59 405.262 510.41 C 408.372 528.1 410.332 545.19 411.562 559.77 Z" opacity="0.2"/>
    <circle cx="326.423" cy="116.255" r="30.089" opacity="0.2"/>
    <circle cx="335.165" cy="379.057" r="30.089" opacity="0.2"/>
    <path d="M 430.707 153.521 C 424.326 189.519 438.411 222.114 438.411 222.114 C 438.411 222.114 462.841 196.345 469.222 160.348 C 475.602 124.351 461.517 91.756 461.517 91.756 C 461.517 91.756 437.087 117.524 430.707 153.521 Z" opacity="0.2"/>
    <path d="M 354.412 230.438 C 388.747 242.993 423.249 234.936 423.249 234.936 C 423.249 234.936 402.083 206.523 367.748 193.968 C 333.413 181.413 298.911 189.47 298.911 189.47 C 298.911 189.47 320.077 217.883 354.412 230.438 Z" opacity="0.2"/>
    <path d="M 345.746 456.008 C 369.812 464.808 394.029 459.067 394.029 459.067 C 394.029 459.067 379.227 439.059 355.161 430.259 C 331.095 421.458 306.878 427.199 306.878 427.199 C 306.878 427.199 321.68 447.208 345.746 456.008 Z" opacity="0.2"/>
    <circle cx="546.298" cy="193.079" r="131.77" style="fill: rgb(246, 195, 128);"/>
    <path d="M 494.826 293.965 C 494.826 293.965 511.297 372.204 511.297 380.439 C 511.297 388.675 589.535 425.735 589.535 425.735 L 659.538 413.382 L 684.245 339.261 C 684.245 339.261 643.067 277.494 643.067 252.787 Z" style="fill: rgb(246, 195, 128);"/>
    <path d="M 857.772 383.1 L 856.652 385.68 C 793.928 528.376 641.881 609.805 488.342 582.93 C 486.312 582.57 484.286 582.197 482.262 581.81 C 461.356 577.757 440.883 571.72 421.122 563.78 C 417.912 562.49 414.726 561.153 411.562 559.77 C 409.402 558.83 407.242 557.86 405.102 556.86 C 385.705 547.874 367.205 537.065 349.852 524.58 L 334.232 479.27 L 343.012 472.57 L 361.072 458.78 L 380.342 444.07 L 385.352 440.24 L 460.962 382.52 L 466.542 378.26 L 505.842 348.26 L 505.852 348.25 C 505.852 348.25 548.352 417.5 610.122 396.91 C 671.892 376.32 670.542 317.28 670.542 317.28 Z" fill="#2f2e41"/>
    <path d="M 432.028 86.916 C 432.028 86.916 473.864 -3.73 554.051 17.188 C 634.238 38.107 679.56 69.484 683.047 100.861 C 686.533 132.239 681.304 179.305 681.304 179.305 C 681.304 179.305 672.588 114.807 616.806 128.752 C 561.024 142.698 473.864 132.239 473.864 132.239 L 459.919 257.748 C 459.919 257.748 444.23 235.087 426.798 249.032 C 409.366 262.978 376.246 114.807 432.028 86.916 Z" fill="#2f2e41"/>
    <path d="M 421.122 563.78 C 417.912 562.49 414.726 561.153 411.562 559.77 C 409.402 558.83 407.242 557.86 405.102 556.86 C 373.021 541.984 343.467 522.177 317.512 498.16 C 326.702 485.64 334.232 479.27 334.232 479.27 L 396.002 479.27 L 405.262 510.41 Z" fill="#2f2e41"/>
    <path d="M 803.662 376.32 L 856.652 385.68 C 842.472 417.985 823.32 447.87 799.892 474.25 Z" fill="#2f2e41"/>
  </g>
</svg>