<?xml version="1.0" encoding="utf-8"?>
<svg viewBox="0 0 500 500" xmlns="http://www.w3.org/2000/svg">
  <g transform="matrix(0.673169, 0, 0, 0.639429, 62.793196, 140.286015)" style="">
    <path d="M 593.406 41.675 L 333.236 41.675 L 333.236 36.312 L 215.265 36.312 L 215.265 41.675 L -45.977 41.675 C -55.696 41.675 -63.576 49.554 -63.576 59.273 L -63.576 415.525 C -63.576 425.245 -55.696 433.124 -45.977 433.124 L 593.406 433.124 C 603.125 433.124 611.004 425.245 611.004 415.525 L 611.004 59.273 C 611.004 49.554 603.125 41.675 593.406 41.675 Z" fill="#3f3d56"/>
    <rect x="-41.861" y="62.125" width="627.391" height="353.913" opacity="0.1"/>
    <circle cx="273.179" cy="49.17" r="6.435" fill="#6c63ff"/>
    <path d="M 625.487 407.096 L 564.258 407.096 L 564.258 402.685 C 564.258 402.202 563.866 401.81 563.383 401.81 L 542.39 401.81 C 541.907 401.81 541.515 402.202 541.515 402.685 L 541.515 407.096 L 528.395 407.096 L 528.395 402.685 C 528.395 402.202 528.003 401.81 527.52 401.81 L 506.527 401.81 C 506.044 401.81 505.652 402.202 505.652 402.685 L 505.652 407.096 L 492.532 407.096 L 492.532 402.685 C 492.532 402.202 492.14 401.81 491.657 401.81 L 470.664 401.81 C 470.181 401.81 469.79 402.202 469.79 402.685 L 469.79 407.096 L 456.669 407.096 L 456.669 402.685 C 456.669 402.202 456.277 401.81 455.794 401.81 L 434.801 401.81 C 434.318 401.81 433.927 402.202 433.927 402.685 L 433.927 407.096 L 420.806 407.096 L 420.806 402.685 C 420.806 402.202 420.415 401.81 419.931 401.81 L 398.939 401.81 C 398.455 401.81 398.064 402.202 398.064 402.685 L 398.064 407.096 L 384.943 407.096 L 384.943 402.685 C 384.943 402.202 384.552 401.81 384.069 401.81 L 363.076 401.81 C 362.593 401.81 362.201 402.202 362.201 402.685 L 362.201 407.096 L 349.08 407.096 L 349.08 402.685 C 349.08 402.202 348.689 401.81 348.206 401.81 L 183.761 401.81 C 183.278 401.81 182.886 402.202 182.887 402.685 L 182.887 407.096 L 169.766 407.096 L 169.766 402.685 C 169.766 402.202 169.374 401.81 168.891 401.81 L 147.898 401.81 C 147.415 401.81 147.024 402.202 147.024 402.685 L 147.024 407.096 L 133.903 407.096 L 133.903 402.685 C 133.903 402.202 133.511 401.81 133.028 401.81 L 112.035 401.81 C 111.552 401.81 111.161 402.202 111.161 402.685 L 111.161 407.096 L 98.04 407.096 L 98.04 402.685 C 98.04 402.202 97.649 401.81 97.165 401.81 L 76.173 401.81 C 75.689 401.81 75.298 402.202 75.298 402.685 L 75.298 407.096 L 62.177 407.096 L 62.177 402.685 C 62.177 402.202 61.786 401.81 61.303 401.81 L 40.31 401.81 C 39.827 401.81 39.435 402.202 39.435 402.685 L 39.435 407.096 L 26.314 407.096 L 26.314 402.685 C 26.314 402.202 25.923 401.81 25.44 401.81 L 4.447 401.81 C 3.964 401.81 3.572 402.202 3.572 402.685 L 3.572 407.096 L -9.548 407.096 L -9.548 402.685 C -9.548 402.202 -9.94 401.81 -10.423 401.81 L -31.416 401.81 C -31.899 401.81 -32.291 402.202 -32.291 402.685 L -32.291 407.096 L -72.527 407.096 C -84.121 407.096 -93.52 416.495 -93.52 428.089 L -93.52 437.582 C -93.52 449.176 -84.121 458.575 -72.527 458.575 L 625.487 458.575 C 637.081 458.575 646.48 449.176 646.48 437.582 L 646.48 428.089 C 646.48 416.495 637.081 407.096 625.487 407.096 Z" fill="#3f3d56"/>
    <rect x="-19.218" y="89.138" width="578.562" height="281.411" style="fill: rgb(108, 99, 255);"/>
    <g transform="matrix(1, 0, 0, 1, -606.516357, -133.458649)">
      <path d="M 755.024 443.716 C 755.024 443.716 760.024 417.546 776.024 417.416 L 787.754 441.556 L 779.934 446.956 C 779.934 446.956 762.984 447.486 755.024 443.716 Z" fill="#65617d"/>
      <path d="M 787.804 441.546 L 779.974 446.946 C 779.974 446.946 767.974 447.326 759.474 445.216 C 757.943 444.865 756.452 444.359 755.024 443.706 C 755.024 443.706 755.024 443.556 755.114 443.286 C 755.111 443.253 755.111 443.219 755.114 443.186 C 755.839 439.903 756.843 436.688 758.114 433.576 C 758.604 432.396 759.114 431.186 759.774 429.976 C 762.124 425.456 765.424 420.976 769.944 418.826 C 771.615 418.005 773.435 417.529 775.294 417.426 L 775.774 417.426 L 776.014 417.426 L 776.264 417.956 L 780.264 426.116 L 787.804 441.546 Z" opacity="0.1"/>
      <path d="M 772.694 416.716 C 772.694 416.716 771.354 433.176 761.094 433.446 C 761.094 433.446 758.194 431.696 754.284 428.776 C 745.284 422.026 730.984 409.076 734.934 397.016 C 740.594 379.756 768.114 411.586 768.114 411.586 L 770.234 413.956 L 772.694 416.716 Z" fill="#fbbebe"/>
      <path d="M 772.694 416.716 C 772.694 416.716 771.354 433.176 761.094 433.446 C 761.094 433.446 758.194 431.696 754.284 428.776 L 753.404 427.646 C 755.143 428.558 757.062 429.074 759.024 429.156 C 762.194 429.305 765.121 427.46 766.354 424.536 C 767.438 422.424 768.39 420.246 769.204 418.016 C 769.685 416.707 770.02 415.349 770.204 413.966 L 772.694 416.716 Z" opacity="0.1"/>
      <path d="M 768.204 446.536 L 765.894 443.536 L 758.134 433.536 L 754.134 428.426 C 755.873 429.338 757.792 429.854 759.754 429.936 C 762.923 430.082 765.848 428.238 767.084 425.316 C 768.165 423.2 769.113 421.019 769.924 418.786 C 771.204 415.146 771.184 413.276 770.724 412.646 C 770.264 412.016 773.594 415.086 775.184 416.596 L 775.244 416.656 L 775.994 417.366 L 776.264 417.916 L 780.174 425.726 C 780.174 425.726 780.174 425.836 780.174 426.056 C 780.594 428.566 781.914 444.306 768.204 446.536 Z" fill="#e7effd"/>
      <path d="M 917.304 339.566 L 897.304 360.886 C 897.304 360.886 871.684 350.626 874.374 347.126 C 875.374 345.766 875.254 341.486 874.654 336.756 C 873.654 329.286 871.654 320.686 871.654 320.686 C 871.654 320.686 916.434 313.396 912.654 320.946 C 911.274 323.706 911.514 326.946 912.374 329.946 C 913.488 333.398 915.153 336.646 917.304 339.566 Z" fill="#fbbebe"/>
      <path d="M 912.714 320.946 C 911.334 323.706 910.714 323.946 911.534 326.946 C 905.684 333.226 898.234 340.096 888.974 340.096 C 884.012 340.098 879.119 338.94 874.684 336.716 C 873.684 329.246 871.684 320.646 871.684 320.646 C 871.684 320.646 916.494 313.396 912.714 320.946 Z" opacity="0.1"/>
      <path d="M 921.084 307.186 C 921.084 331.904 894.326 347.353 872.919 334.994 C 862.984 329.258 856.864 318.658 856.864 307.186 C 856.864 307.036 856.864 306.886 856.864 306.726 C 857.44 282.014 884.551 267.193 905.664 280.047 C 915.147 285.821 920.974 296.084 921.074 307.186 L 921.084 307.186 Z" fill="#fbbebe"/>
      <path d="M 880.344 348.476 L 855.524 360.076 L 836.364 508.186 C 836.364 508.186 847.694 503.056 854.174 506.296 C 860.654 509.536 880.614 506.566 880.614 506.566 C 880.614 506.566 895.184 505.756 897.334 507.376 C 899.484 508.996 924.854 500.626 924.854 500.626 C 924.854 500.626 929.444 490.376 925.934 488.756 C 922.424 487.136 927.014 471.226 927.014 471.226 L 924.854 364.386 L 920.544 350.626 L 908.944 343.626 L 897.064 353.066 L 891.404 353.876 L 880.344 348.476 Z" opacity="0.1"/>
      <path d="M 880.344 346.856 L 855.524 358.456 L 836.364 506.566 C 836.364 506.566 847.694 501.436 854.204 504.716 C 860.714 507.996 880.644 504.986 880.644 504.986 C 880.644 504.986 895.214 504.176 897.364 505.796 C 899.514 507.416 924.884 499.056 924.884 499.056 C 924.884 499.056 929.474 488.796 925.964 487.186 C 922.454 485.576 927.044 469.646 927.044 469.646 L 924.884 362.806 L 920.574 349.046 L 908.974 342.046 L 897.094 351.486 L 891.434 352.296 L 880.344 346.856 Z" fill="#e7effd"/>
      <path d="M 879.124 352.602 C 879.124 352.602 886.274 359.831 886.124 361.33 C 885.974 362.828 885.714 366.379 885.714 366.379 L 880.324 375.686 C 880.324 375.686 877.324 387.283 877.324 389.701 C 877.324 392.119 872.604 413.015 872.604 413.015 L 866.934 445.175 L 859.784 487.332 L 867.124 498.027 L 875.754 491.828 L 887.204 416.693 L 889.634 401.877 C 889.634 401.877 892.194 375.226 892.194 372.467 C 892.194 369.708 890.704 362.479 890.704 362.479 C 890.704 362.479 892.464 355.582 899.704 353.964 C 906.944 352.347 899.164 353.615 899.164 353.615 L 894.984 350.746 L 891.344 352.006 C 891.344 352.006 881.284 349.383 879.124 352.602 Z" fill="#3f3d56" style=""/>
      <path d="M 874.404 338.716 C 874.404 338.716 873.324 339.526 873.054 344.926 C 872.784 350.326 869.054 362.456 869.054 362.456 C 869.054 362.456 883.054 352.746 890.054 353.826 L 874.404 338.716 Z" opacity="0.1"/>
      <path d="M 874.404 337.136 C 874.404 337.136 873.324 337.946 873.054 343.346 C 872.784 348.746 869.054 360.886 869.054 360.886 C 869.054 360.886 883.054 351.166 890.054 352.246 L 874.404 337.136 Z" fill="#e7effd"/>
      <path d="M 912.714 334.446 L 890.594 353.866 C 890.594 353.866 909.214 364.926 911.594 367.626 C 913.974 370.326 916.454 341.186 916.454 341.186 L 912.714 334.446 Z" opacity="0.1"/>
      <path d="M 913.524 332.826 L 891.404 352.246 C 891.404 352.246 910.014 363.306 912.404 366.006 C 914.794 368.706 917.264 339.566 917.264 339.566 L 913.524 332.826 Z" fill="#e7effd"/>
      <path d="M 874.404 337.095 C 874.404 337.095 871.974 336.128 869.684 338.933 C 868 340.762 865.711 342.179 863.074 343.025 C 863.074 343.025 838.524 346.157 837.584 348.738 L 826.114 349.282 C 826.114 349.282 822.114 349.713 821.664 356.473 C 821.214 363.234 819.104 363.929 819.104 363.929 C 819.104 363.929 814.384 370.618 814.784 374.062 C 815.184 377.506 811.144 379.24 811.144 379.24 L 828.004 414.273 C 828.004 414.273 828.544 428.712 825.444 433.994 C 822.344 439.277 816.534 462.666 816.534 462.666 C 816.534 462.666 818.964 462.243 818.834 463.529 C 818.704 464.816 815.834 478.944 815.834 478.944 C 815.834 478.944 815.024 484.538 813.674 486.496 C 812.324 488.453 812.194 498.562 812.194 498.562 L 810.034 505.898 C 810.034 505.898 815.154 515.056 822.984 513.761 C 830.814 512.466 844.984 487.998 844.984 487.998 L 853.984 461.627 L 860.984 435.537 L 862.984 417.861 L 866.224 378.705 L 870.944 352.838 C 870.944 352.838 876.294 338.933 874.404 337.095 Z" style="fill: rgb(38, 33, 68);"/>
      <path d="M 787.804 441.546 L 779.974 446.946 C 779.974 446.946 767.974 447.326 759.474 445.216 L 755.114 443.286 L 754.244 442.906 L 755.144 443.186 C 759.644 444.526 763.144 444.496 765.934 443.566 C 777.004 439.846 775.784 421.566 775.354 417.426 C 775.354 417.016 775.284 416.746 775.264 416.636 C 775.28 416.671 775.3 416.705 775.324 416.736 C 775.476 416.985 775.646 417.223 775.834 417.446 C 775.984 417.626 776.154 417.806 776.324 417.976 L 780.234 425.786 C 780.234 425.786 780.234 425.896 780.234 426.116 L 787.804 441.546 Z" opacity="0.1"/>
      <path d="M 814.914 388.806 L 811.144 389.886 L 810.604 397.576 C 810.604 397.576 806.154 396.896 804.934 402.156 C 803.714 407.416 801.564 409.846 801.564 409.846 C 801.564 409.846 794.144 416.056 793.744 421.316 L 789.204 424.146 C 789.204 424.146 778.544 421.716 776.124 417.406 C 776.124 417.406 780.974 452.206 755.124 443.706 C 755.124 443.706 784.124 456.386 785.474 458.136 C 786.824 459.886 795.724 465.016 803.824 460.706 C 811.924 456.396 813.674 449.776 813.674 449.776 C 813.674 449.776 821.494 438.846 821.764 437.226 C 822.034 435.606 828.104 433.726 828.104 433.726 L 839.604 405.716 L 814.914 388.806 Z" style="fill: rgb(38, 33, 68);"/>
      <path d="M 909.614 350.626 L 913.524 332.826 C 913.524 332.826 915.284 338.626 917.034 339.976 L 922.834 344.426 C 922.834 344.426 928.634 347.126 930.654 347.126 C 932.674 347.126 943.604 349.956 944.954 351.436 C 946.304 352.916 951.704 351.846 951.704 351.846 C 951.704 351.846 956.154 353.326 960.064 354.276 C 963.974 355.226 965.864 361.686 965.064 364.276 C 964.399 366.866 965.113 369.616 966.954 371.556 C 968.574 373.176 969.384 378.436 969.384 378.436 C 971.365 379.087 973.01 380.492 973.964 382.346 C 975.314 385.346 974.964 391.796 974.964 391.796 L 954.864 420.116 C 954.864 420.116 955.134 431.046 954.324 433.476 C 953.514 435.906 957.154 477.176 957.154 477.176 L 954.442 516.221 C 954.442 516.221 956.43 513.423 955.22 513.963 C 954.01 514.503 957.177 520.201 957.177 519.291 C 957.177 518.381 920.944 480.716 920.944 480.716 C 920.944 480.716 916.764 473.976 916.764 472.486 C 916.764 470.996 912.854 457.376 912.854 457.376 L 906.914 431.076 L 909.614 350.626 Z" opacity="0.1"/>
      <path d="M 976.574 390.226 C 976.574 391.156 976.574 391.766 976.574 391.766 L 956.484 420.076 C 956.484 420.076 956.754 431.006 955.944 433.436 C 955.474 434.836 956.504 449.356 957.454 461.286 C 958.134 469.886 958.774 477.136 958.774 477.136 L 960.554 507.236 L 956.688 514.888 C 956.688 514.888 956.171 514.595 954.961 515.135 C 953.751 515.675 946.265 519.494 946.265 518.584 C 946.265 517.674 922.564 480.716 922.564 480.716 C 922.564 480.716 918.384 473.966 918.384 472.486 C 918.384 471.006 914.474 457.376 914.474 457.376 L 908.534 431.076 L 911.234 350.676 L 913.524 332.876 C 913.524 332.876 916.894 338.676 918.654 340.016 C 920.414 341.356 924.454 344.476 924.454 344.476 C 924.454 344.476 930.254 347.176 932.274 347.176 C 934.294 347.176 945.224 350.006 946.574 351.486 C 947.924 352.966 953.324 351.896 953.324 351.896 C 953.324 351.896 957.774 353.376 961.684 354.326 C 965.594 355.276 967.484 361.746 966.684 364.326 C 966.018 366.919 966.731 369.673 968.574 371.616 C 970.184 373.236 970.994 378.496 970.994 378.496 C 972.98 379.147 974.63 380.556 975.584 382.416 C 976.514 384.376 976.604 388.116 976.574 390.226 Z" style="fill: rgb(38, 33, 68);"/>
      <path d="M 954.934 502.116 L 951.584 504.886 L 940.374 514.116 C 940.374 514.116 910.014 530.306 901.654 514.926 C 894.284 501.376 928.654 491.706 936.984 489.596 L 938.754 489.166 L 954.934 502.116 Z" fill="#fbbebe"/>
      <path d="M 825.304 369.516 C 825.304 369.516 831.244 372.216 832.594 375.986 C 833.944 379.756 825.304 369.516 825.304 369.516 Z" opacity="0.1"/>
      <path d="M 806.964 409.986 C 806.964 409.986 798.324 420.506 801.834 424.546 C 805.344 428.586 806.964 409.986 806.964 409.986 Z" opacity="0.1"/>
      <path d="M 961.274 375.446 C 961.274 375.446 953.184 376.256 952.914 383.276 L 961.274 375.446 Z" opacity="0.1"/>
      <path d="M 886.274 486.066 C 887.084 485.256 905.704 457.736 910.014 460.166 L 886.274 486.066 Z" opacity="0.1"/>
      <path d="M 921.084 307.186 C 921.09 312.476 919.784 317.684 917.284 322.346 L 917.044 322.346 C 915.044 321.916 913.954 319.546 912.394 318.056 C 910.43 316.201 907.505 315.799 905.114 317.056 C 902.705 318.497 901.318 321.177 901.534 323.976 C 900.534 319.656 900.834 315.066 899.824 310.736 C 898.814 306.406 895.824 302.026 891.674 301.956 C 889.894 301.956 887.814 302.616 886.524 301.276 C 885.744 300.476 885.584 299.206 885.004 298.226 C 882.004 293.446 873.054 295.866 869.384 298.316 C 865.714 300.766 861.444 304.686 856.874 306.786 C 857.45 282.074 884.561 267.253 905.674 280.107 C 915.157 285.881 920.984 296.144 921.084 307.246 L 921.084 307.186 Z" opacity="0.1"/>
      <path d="M 885.004 297.356 C 885.584 298.356 885.744 299.606 886.524 300.406 C 887.804 301.746 889.884 301.056 891.674 301.086 C 895.804 301.156 898.824 305.536 899.824 309.866 C 900.824 314.196 900.504 318.786 901.534 323.116 C 901.313 320.316 902.701 317.634 905.114 316.196 C 907.506 314.946 910.428 315.347 912.394 317.196 C 913.954 318.686 915.014 321.056 917.044 321.476 C 919.074 321.896 921.044 319.956 921.774 317.816 C 922.504 315.676 922.464 313.316 922.944 311.096 C 923.854 306.886 926.604 303.436 928.124 299.436 C 929.934 294.567 929.884 289.201 927.984 284.366 C 926.984 281.836 925.464 279.556 924.444 277.026 C 922.894 273.176 922.444 268.836 920.594 265.176 C 917.424 259.046 909.934 255.976 903.794 258.286 C 900.854 259.386 898.314 261.516 895.334 262.476 C 891.334 263.756 887.084 262.796 882.964 262.216 C 878.844 261.636 874.274 261.586 870.964 264.306 C 867.144 267.426 866.104 273.306 862.514 276.726 C 861.004 278.166 859.134 279.086 857.514 280.416 C 855.894 281.746 854.514 283.736 854.744 285.896 C 854.974 288.686 857.744 291.226 856.744 293.816 C 856.383 294.576 855.873 295.256 855.244 295.816 C 852.239 298.965 850.004 302.768 848.714 306.926 C 855.934 309.186 863.714 301.226 869.394 297.466 C 873.054 294.996 882.044 292.576 885.004 297.356 Z" style="fill: rgb(1, 1, 8);"/>
      <path d="M 954.934 502.116 L 951.584 504.886 C 948.584 499.956 936.464 490.106 936.464 490.106 L 936.984 489.596 L 938.754 489.166 L 954.934 502.116 Z" opacity="0.1"/>
      <path d="M 958.204 497.126 C 958.204 497.126 957.004 500.126 955.754 502.726 C 954.504 505.326 953.144 507.726 953.084 505.726 C 952.944 501.946 937.304 489.266 937.304 489.266 L 939.424 487.206 L 941.884 484.816 L 958.204 497.126 Z" fill="#e7effd"/>
      <path d="M 958.714 477.156 L 960.494 507.256 C 956.294 500.746 944.794 484.036 937.404 484.576 L 955.344 463.936 C 956.088 463.108 956.773 462.229 957.394 461.306 C 958.074 469.906 958.714 477.156 958.714 477.156 Z" opacity="0.1"/>
      <path d="M 958.204 497.126 C 958.204 497.126 957.004 500.126 955.754 502.726 C 951.054 496.276 944.584 488.656 939.424 487.236 L 941.884 484.846 L 958.204 497.126 Z" opacity="0.1"/>
      <path d="M 971.664 387.996 L 976.524 391.776 C 976.524 391.776 984.614 391.906 985.424 398.656 C 986.234 405.406 993.654 408.496 993.654 408.496 C 993.654 408.496 999.184 414.026 999.184 416.596 C 999.184 419.166 1003.364 423.746 1003.364 424.146 C 1003.364 424.546 1007.364 432.776 1006.874 434.266 C 1006.384 435.756 1011.184 442.266 1009.704 444.646 C 1008.486 446.827 1007.404 449.082 1006.464 451.396 C 1006.464 451.396 1000.124 463.536 996.894 465.826 C 993.664 468.116 978.814 487.416 978.814 487.416 C 978.814 487.416 962.894 505.756 962.894 511.416 C 962.894 511.416 947.384 485.516 938.214 486.186 L 956.204 465.556 C 956.204 465.556 959.304 462.186 959.444 460.166 C 959.584 458.146 968.074 448.836 972.124 448.426 C 972.124 448.426 972.794 442.896 971.044 442.766 C 969.294 442.636 967.804 438.306 967.804 438.306 C 967.804 438.306 955.934 424.306 955.804 415.376 C 955.674 406.446 971.664 387.996 971.664 387.996 Z" style="fill: rgb(38, 33, 68);"/>
      <path d="M 978.814 400.806 C 978.814 400.806 967.484 409.176 969.914 411.866 C 972.344 414.556 978.814 400.806 978.814 400.806 Z" opacity="0.1"/>
      <path d="M 979.354 435.346 C 979.354 435.346 1000.354 428.596 1002.554 435.346 L 979.354 435.346 Z" opacity="0.1"/>
      <path d="M 830.904 399.186 C 830.904 399.186 830.904 429.946 828.274 432.986 C 825.644 436.026 830.904 399.186 830.904 399.186 Z" opacity="0.1"/>
      <path d="M 952.514 409.106 L 956.424 420.106 C 956.424 420.106 957.974 409.306 952.514 409.106 Z" opacity="0.1"/>
      <g opacity="0.1" transform="matrix(1, 0, 0, 1, -28.235979, -37.044254)">
        <path d="M 915.92 343.48 C 916.92 340.95 914.33 338.48 913.99 335.75 C 913.644 336.514 913.496 337.353 913.56 338.19 C 913.73 340.24 915.24 342.14 915.64 344.03 C 915.749 343.855 915.843 343.671 915.92 343.48 Z" transform="translate(-30.56 -15.24)"/>
        <path d="M 960.69 372.54 C 959.69 368.28 960.01 363.78 959.03 359.54 C 958.05 355.3 955.03 350.83 950.87 350.76 C 949.09 350.76 947.01 351.42 945.72 350.08 C 944.94 349.28 944.79 348.01 944.2 347.03 C 941.2 342.25 932.26 344.67 928.58 347.12 C 923.06 350.79 915.48 358.46 908.41 356.72 C 908.07 357.54 907.75 358.36 907.49 359.21 C 914.71 361.47 922.49 353.51 928.17 349.75 C 931.85 347.3 940.84 344.88 943.8 349.66 C 944.38 350.66 944.54 351.91 945.32 352.71 C 946.6 354.05 948.68 353.36 950.47 353.39 C 954.6 353.46 957.62 357.84 958.62 362.17 C 959.62 366.5 959.3 371.09 960.33 375.42 C 960.265 374.446 960.388 373.468 960.69 372.54 Z" transform="translate(-30.56 -15.24)"/>
        <path d="M 981 367.48 C 980.26 369.62 978.34 371.58 976.26 371.14 C 974.18 370.7 973.17 368.35 971.62 366.86 C 969.654 365.011 966.732 364.61 964.34 365.86 C 962.046 367.222 960.674 369.724 960.76 372.39 C 961.297 370.742 962.427 369.353 963.93 368.49 C 966.322 367.24 969.244 367.641 971.21 369.49 C 972.77 370.98 973.83 373.35 975.86 373.77 C 977.89 374.19 979.86 372.25 980.59 370.11 C 980.977 368.848 981.226 367.546 981.33 366.23 C 981.245 366.653 981.134 367.07 981 367.48 Z" transform="translate(-30.56 -15.24)"/>
        <path d="M 987.32 349.1 C 985.8 353.1 983.06 356.55 982.14 360.76 C 981.96 361.61 981.85 362.48 981.75 363.35 C 982.67 359.16 985.4 355.71 986.92 351.73 C 987.591 349.929 988.012 348.045 988.17 346.13 C 987.958 347.139 987.674 348.132 987.32 349.1 Z" transform="translate(-30.56 -15.24)"/>
      </g>
    </g>
  </g>
</svg>