<?xml version="1.0" encoding="utf-8"?>
<svg viewBox="0 0 500 500" xmlns="http://www.w3.org/2000/svg">
  <g style="" transform="matrix(1.065071, 0, 0, 1.137583, -16.964816, -27.373656)">
    <g style="" transform="matrix(0.400709, 0, 0, 0.37016, 9.723103, 163.330811)">
      <path d="M 678.601 -42.905 C 603.851 -42.805 531.901 -63.995 463.081 -87.535 C 394.261 -111.075 325.971 -137.435 252.611 -148.605 C 205.431 -155.785 151.781 -155.125 114.901 -129.055 C 79.401 -103.975 69.121 -62.465 64.161 -24.115 C 60.431 4.735 58.711 35.015 72.681 61.405 C 82.381 79.725 98.981 94.825 110.681 112.285 C 151.521 173.025 126.961 250.615 87.271 312.765 C 68.661 341.925 46.861 369.875 32.791 400.705 C 18.721 431.535 12.951 466.495 27.301 496.925 C 41.521 527.085 73.641 548.975 108.111 563.925 C 178.111 594.345 259.611 600.865 338.921 603.375 C 514.481 608.945 690.381 597.585 865.811 586.225 C 930.731 582.025 995.941 577.795 1059.521 565.625 C 1094.821 558.875 1131.171 548.855 1156.201 526.895 C 1187.971 499.015 1194.471 453.495 1171.351 420.775 C 1132.581 365.895 1030.351 355.545 1002.551 296.165 C 987.221 263.475 1000.441 225.985 1019.911 194.475 C 1061.671 126.865 1133.551 66.305 1134.761 -9.315 C 1135.591 -61.245 1098.211 -111.905 1042.381 -134.475 C 983.861 -158.115 904.071 -152.035 863.071 -107.975 C 820.911 -62.585 744.601 -42.975 678.601 -42.905 Z" opacity="0.1" style="fill: rgb(56, 211, 159);"/>
      <path d="M 1011.511 492.845 C 1011.511 492.845 999.221 484.735 987.041 490.505 C 987.041 490.505 990.791 497.725 1006.211 497.045 Z" fill="#38d39f"/>
      <path d="M 1013.071 493.275 C 1013.071 493.275 1016.811 507.515 1007.431 517.205 C 1007.431 517.205 1001.791 511.335 1007.431 496.955 Z" fill="#38d39f"/>
      <path d="M 1028.351 479.605 C 1028.351 479.605 1027.441 467.495 1000.091 471.515 C 1000.091 471.515 999.961 479.325 1009.561 483.025 C 1019.161 486.725 1023.561 483.605 1028.351 479.605 Z" fill="#38d39f"/>
      <path d="M 1030.071 479.525 C 1030.071 479.525 1041.631 483.235 1031.321 508.885 C 1031.321 508.885 1023.691 507.185 1022.321 496.975 C 1020.951 486.765 1025.011 483.245 1030.071 479.525 Z" fill="#38d39f"/>
      <path d="M 1045.511 462.345 C 1045.511 462.345 1047.081 442.415 1019.131 444.455 C 1019.131 444.455 1017.131 462.455 1040.581 467.135 Z" fill="#38d39f"/>
      <path d="M 1063.981 439.845 C 1063.981 439.845 1060.151 417.255 1032.211 423.985 C 1032.211 423.985 1032.111 443.515 1059.421 445.225 Z" fill="#38d39f"/>
      <path d="M 1077.481 416.585 C 1077.481 416.585 1071.061 394.585 1043.381 401.165 C 1043.381 401.165 1049.971 420.955 1075.641 420.645 Z" style="fill: rgb(101, 43, 226);"/>
      <path d="M 1090.301 393.865 C 1090.301 393.865 1084.031 371.035 1057.301 377.865 C 1057.301 377.865 1066.221 399.555 1088.531 397.725 Z" style="fill: rgb(101, 43, 226);"/>
      <path d="M 1098.561 372.285 C 1098.561 372.285 1093.741 344.365 1068.821 350.545 C 1068.821 350.545 1076.061 375.945 1096.731 376.355 Z" style="fill: rgb(101, 43, 226);"/>
      <path d="M 1106.311 346.215 C 1106.311 346.215 1100.521 318.075 1075.311 326.215 C 1075.311 326.215 1085.191 352.815 1104.521 350.065 Z" style="fill: rgb(101, 43, 226);"/>
      <path d="M 1111.071 321.955 C 1111.071 321.955 1101.881 293.805 1082.391 294.565 C 1082.391 294.565 1091.781 324.295 1109.441 327.565 Z" style="fill: rgb(101, 43, 226);"/>
      <path d="M 1114.151 298.275 C 1114.151 298.275 1104.151 264.395 1088.291 267.005 C 1088.291 267.005 1095.211 292.905 1113.591 303.555 Z" style="fill: rgb(101, 43, 226);"/>
      <path d="M 1115.891 270.025 C 1115.891 270.025 1106.511 241.795 1090.891 240.665 C 1090.891 240.665 1097.271 268.445 1115.581 277.365 Z" style="fill: rgb(101, 43, 226);"/>
      <path d="M 1117.781 243.665 C 1117.781 243.665 1106.091 215.405 1095.781 214.765 C 1095.781 214.765 1100.861 242.595 1116.781 248.305 Z" style="fill: rgb(101, 43, 226);"/>
      <path d="M 1119.071 219.145 C 1119.071 219.145 1111.881 188.455 1101.551 185.905 C 1101.551 185.905 1102.961 211.015 1118.031 221.445 Z" style="fill: rgb(101, 43, 226);"/>
      <path d="M 1122.971 187.025 C 1122.971 187.025 1115.411 162.555 1107.041 158.825 C 1107.041 158.825 1108.691 187.675 1121.041 193.005 Z" style="fill: rgb(101, 43, 226);"/>
      <path d="M 1126.201 166.025 L 1127.721 122.885 C 1127.721 122.885 1112.071 155.405 1125.071 173.595 Z" style="fill: rgb(101, 43, 226);"/>
      <path d="M 1138.281 123.115 C 1138.281 123.115 1149.551 91.615 1152.281 89.855 C 1152.281 89.855 1130.181 110.295 1132.341 136.585 Z" style="fill: rgb(101, 43, 226);"/>
      <path d="M 1046.271 462.195 C 1046.271 462.195 1066.091 459.605 1065.501 487.615 C 1065.501 487.615 1047.591 490.535 1041.741 467.365 Z" fill="#38d39f"/>
      <path d="M 1064.921 439.085 C 1064.921 439.085 1087.821 439.015 1085.921 467.685 C 1085.921 467.685 1066.691 471.125 1060.351 444.505 Z" style="fill: rgb(101, 43, 226);"/>
      <path d="M 1077.701 418.435 C 1077.701 418.435 1098.491 408.685 1111.791 433.855 C 1111.791 433.855 1092.591 441.975 1075.861 422.505 Z" style="fill: rgb(101, 43, 226);"/>
      <path d="M 1090.761 394.075 C 1090.761 394.075 1112.051 383.705 1124.551 408.285 C 1124.551 408.285 1102.371 415.925 1089.001 397.965 Z" style="fill: rgb(101, 43, 226);"/>
      <path d="M 1098.291 372.895 C 1098.291 372.895 1118.781 353.325 1135.131 373.115 C 1135.131 373.115 1114.201 389.225 1097.351 377.255 Z" style="fill: rgb(101, 43, 226);"/>
      <path d="M 1105.151 345.545 C 1105.151 345.545 1125.761 325.545 1141.981 346.465 C 1141.981 346.465 1118.851 362.895 1104.411 349.745 Z" style="fill: rgb(101, 43, 226);"/>
      <path d="M 1109.001 321.155 C 1109.001 321.155 1124.881 296.155 1143.581 301.735 C 1143.581 301.735 1127.101 328.205 1109.181 327.025 Z" style="fill: rgb(101, 43, 226);"/>
      <path d="M 1113.681 298.115 C 1113.681 298.115 1129.681 266.635 1144.821 272.115 C 1144.821 272.115 1133.281 296.315 1113.271 303.425 Z" style="fill: rgb(101, 43, 226);"/>
      <path d="M 1114.791 268.385 C 1114.791 268.385 1131.241 243.605 1146.651 246.635 C 1146.651 246.635 1133.201 271.765 1113.191 275.555 Z" style="fill: rgb(101, 43, 226);"/>
      <path d="M 1116.071 243.115 C 1116.071 243.115 1128.821 215.305 1139.181 215.115 C 1139.181 215.115 1133.061 242.725 1116.931 247.835 Z" style="fill: rgb(101, 43, 226);"/>
      <path d="M 1118.571 218.545 C 1118.571 218.545 1132.741 190.385 1143.391 190.325 C 1143.391 190.325 1136.141 214.405 1119.041 221.015 Z" style="fill: rgb(101, 43, 226);"/>
      <path d="M 1120.701 188.785 C 1120.701 188.785 1131.301 165.485 1140.081 162.845 C 1140.081 162.845 1134.781 191.245 1121.871 194.965 Z" style="fill: rgb(101, 43, 226);"/>
      <path d="M 1127.461 165.175 L 1151.151 129.085 C 1151.151 129.085 1145.081 164.685 1124.001 172.085 Z" style="fill: rgb(101, 43, 226);"/>
      <path d="M 1143.721 126.025 C 1143.721 126.025 1171.251 107.025 1172.251 103.955 C 1172.251 103.955 1158.251 130.565 1132.251 135.265 Z" style="fill: rgb(101, 43, 226);"/>
      <path d="M 1145.371 117.475 C 1145.371 117.475 1176.981 87.085 1185.051 87.115 C 1185.051 87.115 1158.981 88.305 1144.611 115.855 Z" style="fill: rgb(101, 43, 226);"/>
      <path d="M 1121.011 193.295 L 1122.161 193.445 C 1128.101 146.955 1136.761 119.445 1146.541 116.075 L 1146.161 114.975 C 1135.791 118.575 1127.071 145.665 1121.011 193.295 Z" style="fill: rgb(101, 43, 226);"/>
      <path d="M 1112.271 304.475 L 1114.011 304.615 C 1114.381 300.275 1114.661 295.835 1114.851 291.405 C 1116.511 252.925 1119.081 217.585 1122.461 191.095 L 1121.461 189.845 C 1118.071 216.395 1114.771 252.795 1113.111 291.335 C 1112.921 295.735 1112.641 300.155 1112.271 304.475 Z" style="fill: rgb(101, 43, 226);"/>
      <path d="M 979.071 515.025 C 979.371 514.895 1010.001 501.215 1041.791 468.595 C 1060.416 449.49 1075.892 427.55 1087.641 403.595 C 1102.341 373.665 1111.301 336.885 1114.301 301.155 L 1112.491 302.005 C 1105.741 382.205 1069.231 437.005 1040.201 466.855 C 1008.721 499.185 978.431 512.725 978.131 512.855 Z" fill="#444053"/>
      <path d="M 1058.381 -67.285 L 97.501 -67.285 C 92.774 -67.285 88.941 -63.453 88.941 -58.725 L 88.941 -33.785 L 1066.941 -33.785 L 1066.941 -58.725 C 1066.941 -63.453 1063.109 -67.285 1058.381 -67.285 Z" fill="#3f3d56"/>
      <path d="M 88.941 -33.785 L 88.941 527.455 C 88.941 536.987 96.669 544.715 106.201 544.715 L 1049.681 544.715 C 1059.214 544.715 1066.941 536.987 1066.941 527.455 L 1066.941 -33.785 Z" fill="#fff"/>
      <circle cx="104.431" cy="-50.785" r="4" fill="#fa5959" opacity="0.8"/>
      <circle cx="115.431" cy="-50.785" r="4" fill="#fed253" opacity="0.8"/>
      <circle cx="126.431" cy="-50.785" r="4" fill="#8ccf4d" opacity="0.8"/>
      <rect x="179.851" y="59.795" width="786" height="345.62" opacity="0.05"/>
      <rect x="185.851" y="62.415" width="774" height="338" fill="#3f3d56"/>
      <path d="M 396.851 149.405 C 337.577 149.405 300.53 213.571 330.167 264.905 C 359.805 316.238 433.898 316.238 463.535 264.905 C 470.293 253.199 473.851 239.921 473.851 226.405 C 473.851 183.879 439.377 149.405 396.851 149.405 Z M 410.661 228.255 L 410.661 264.715 L 383.441 264.715 L 383.441 228.255 C 369.6 217.778 372.292 196.247 388.285 189.499 C 404.279 182.751 421.58 195.847 419.427 213.072 C 418.673 219.108 415.511 224.583 410.661 228.255 Z" fill="#38d39f"/>
      <path d="M 396.851 149.405 C 337.577 149.405 300.53 213.571 330.167 264.905 C 359.805 316.238 433.898 316.238 463.535 264.905 C 470.293 253.199 473.851 239.921 473.851 226.405 C 473.851 183.879 439.377 149.405 396.851 149.405 Z M 410.661 228.255 L 410.661 264.715 L 383.441 264.715 L 383.441 228.255 C 369.6 217.778 372.292 196.247 388.285 189.499 C 404.279 182.751 421.58 195.847 419.427 213.072 C 418.673 219.108 415.511 224.583 410.661 228.255 Z" opacity="0.05"/>
      <path d="M 396.851 127.405 C 320.641 127.405 273.01 209.905 311.115 275.905 C 349.22 341.905 444.483 341.905 482.588 275.905 C 491.277 260.855 495.851 243.783 495.851 226.405 C 495.851 171.729 451.527 127.405 396.851 127.405 Z M 414.601 228.785 L 414.601 275.655 L 379.601 275.655 L 379.601 228.785 C 361.8 215.313 365.257 187.623 385.825 178.942 C 406.392 170.262 428.644 187.101 425.878 209.253 C 424.908 217.019 420.841 224.062 414.601 228.785 Z" fill="#38d39f"/>
      <rect x="536.851" y="213.415" width="320" height="34" fill="#fff"/>
      <rect x="787.851" y="275.415" width="69" height="34" fill="#38d39f"/>
      <path d="M 568.351 229.905 L 562.561 229.905 L 567.711 224.765 C 567.903 224.567 567.903 224.253 567.711 224.055 C 567.516 223.858 567.197 223.858 567.001 224.055 L 561.851 229.205 L 561.851 223.405 C 561.851 223.129 561.627 222.905 561.351 222.905 C 561.077 222.91 560.857 223.131 560.851 223.405 L 560.851 229.205 L 555.711 224.025 C 555.516 223.828 555.197 223.828 555.001 224.025 C 554.809 224.223 554.809 224.537 555.001 224.735 L 560.151 229.875 L 554.351 229.875 C 554.077 229.88 553.857 230.101 553.851 230.375 C 553.851 230.651 554.075 230.875 554.351 230.875 L 560.151 230.875 L 555.001 236.025 C 554.809 236.223 554.809 236.537 555.001 236.735 C 555.201 236.921 555.511 236.921 555.711 236.735 L 560.851 231.585 L 560.851 237.375 C 560.851 237.651 561.075 237.875 561.351 237.875 C 561.627 237.875 561.851 237.651 561.851 237.375 L 561.851 231.585 L 567.001 236.735 C 567.201 236.921 567.511 236.921 567.711 236.735 C 567.903 236.537 567.903 236.223 567.711 236.025 L 562.561 230.875 L 568.351 230.875 C 568.627 230.875 568.851 230.651 568.851 230.375 C 568.835 230.11 568.616 229.904 568.351 229.905 Z" fill="#38d39f"/>
      <path d="M 589.351 229.905 L 583.561 229.905 L 588.711 224.765 C 588.903 224.567 588.903 224.253 588.711 224.055 C 588.516 223.858 588.197 223.858 588.001 224.055 L 582.851 229.205 L 582.851 223.405 C 582.851 223.129 582.627 222.905 582.351 222.905 C 582.077 222.91 581.857 223.131 581.851 223.405 L 581.851 229.205 L 576.711 224.025 C 576.516 223.828 576.197 223.828 576.001 224.025 C 575.809 224.223 575.809 224.537 576.001 224.735 L 581.151 229.875 L 575.351 229.875 C 575.077 229.88 574.857 230.101 574.851 230.375 C 574.851 230.651 575.075 230.875 575.351 230.875 L 581.151 230.875 L 576.001 236.025 C 575.809 236.223 575.809 236.537 576.001 236.735 C 576.201 236.921 576.511 236.921 576.711 236.735 L 581.851 231.585 L 581.851 237.375 C 581.851 237.651 582.075 237.875 582.351 237.875 C 582.627 237.875 582.851 237.651 582.851 237.375 L 582.851 231.585 L 588.001 236.735 C 588.201 236.921 588.511 236.921 588.711 236.735 C 588.903 236.537 588.903 236.223 588.711 236.025 L 583.561 230.875 L 589.351 230.875 C 589.627 230.875 589.851 230.651 589.851 230.375 C 589.835 230.11 589.616 229.904 589.351 229.905 Z" fill="#38d39f"/>
      <path d="M 610.351 229.905 L 604.561 229.905 L 609.711 224.765 C 609.903 224.567 609.903 224.253 609.711 224.055 C 609.516 223.858 609.197 223.858 609.001 224.055 L 603.851 229.205 L 603.851 223.405 C 603.851 223.129 603.627 222.905 603.351 222.905 C 603.077 222.91 602.857 223.131 602.851 223.405 L 602.851 229.205 L 597.711 224.025 C 597.516 223.828 597.197 223.828 597.001 224.025 C 596.809 224.223 596.809 224.537 597.001 224.735 L 602.151 229.875 L 596.351 229.875 C 596.077 229.88 595.857 230.101 595.851 230.375 C 595.851 230.651 596.075 230.875 596.351 230.875 L 602.151 230.875 L 597.001 236.025 C 596.809 236.223 596.809 236.537 597.001 236.735 C 597.201 236.921 597.511 236.921 597.711 236.735 L 602.851 231.585 L 602.851 237.375 C 602.851 237.651 603.075 237.875 603.351 237.875 C 603.627 237.875 603.851 237.651 603.851 237.375 L 603.851 231.585 L 609.001 236.735 C 609.201 236.921 609.511 236.921 609.711 236.735 C 609.903 236.537 609.903 236.223 609.711 236.025 L 604.561 230.875 L 610.351 230.875 C 610.627 230.875 610.851 230.651 610.851 230.375 C 610.835 230.11 610.616 229.904 610.351 229.905 Z" fill="#38d39f"/>
      <path d="M 631.351 229.905 L 625.561 229.905 L 630.711 224.765 C 630.903 224.567 630.903 224.253 630.711 224.055 C 630.516 223.858 630.197 223.858 630.001 224.055 L 624.851 229.205 L 624.851 223.405 C 624.851 223.129 624.627 222.905 624.351 222.905 C 624.077 222.91 623.857 223.131 623.851 223.405 L 623.851 229.205 L 618.711 224.025 C 618.516 223.828 618.197 223.828 618.001 224.025 C 617.809 224.223 617.809 224.537 618.001 224.735 L 623.151 229.875 L 617.351 229.875 C 617.077 229.88 616.857 230.101 616.851 230.375 C 616.851 230.651 617.075 230.875 617.351 230.875 L 623.151 230.875 L 618.001 236.025 C 617.809 236.223 617.809 236.537 618.001 236.735 C 618.201 236.921 618.511 236.921 618.711 236.735 L 623.851 231.585 L 623.851 237.375 C 623.851 237.651 624.075 237.875 624.351 237.875 C 624.627 237.875 624.851 237.651 624.851 237.375 L 624.851 231.585 L 630.001 236.735 C 630.201 236.921 630.511 236.921 630.711 236.735 C 630.903 236.537 630.903 236.223 630.711 236.025 L 625.561 230.875 L 631.351 230.875 C 631.627 230.875 631.851 230.651 631.851 230.375 C 631.835 230.11 631.616 229.904 631.351 229.905 Z" fill="#38d39f"/>
      <path d="M 652.351 229.905 L 646.561 229.905 L 651.711 224.765 C 651.903 224.567 651.903 224.253 651.711 224.055 C 651.516 223.858 651.197 223.858 651.001 224.055 L 645.851 229.205 L 645.851 223.405 C 645.851 223.129 645.627 222.905 645.351 222.905 C 645.077 222.91 644.857 223.131 644.851 223.405 L 644.851 229.205 L 639.711 224.025 C 639.516 223.828 639.197 223.828 639.001 224.025 C 638.809 224.223 638.809 224.537 639.001 224.735 L 644.151 229.875 L 638.351 229.875 C 638.077 229.88 637.857 230.101 637.851 230.375 C 637.851 230.651 638.075 230.875 638.351 230.875 L 644.151 230.875 L 639.001 236.025 C 638.809 236.223 638.809 236.537 639.001 236.735 C 639.201 236.921 639.511 236.921 639.711 236.735 L 644.851 231.585 L 644.851 237.375 C 644.851 237.651 645.075 237.875 645.351 237.875 C 645.627 237.875 645.851 237.651 645.851 237.375 L 645.851 231.585 L 651.001 236.735 C 651.201 236.921 651.511 236.921 651.711 236.735 C 651.903 236.537 651.903 236.223 651.711 236.025 L 646.561 230.875 L 652.351 230.875 C 652.627 230.875 652.851 230.651 652.851 230.375 C 652.835 230.11 652.616 229.904 652.351 229.905 Z" fill="#38d39f"/>
      <path d="M 673.351 229.905 L 667.561 229.905 L 672.711 224.765 C 672.903 224.567 672.903 224.253 672.711 224.055 C 672.516 223.858 672.197 223.858 672.001 224.055 L 666.851 229.205 L 666.851 223.405 C 666.851 223.129 666.627 222.905 666.351 222.905 C 666.077 222.91 665.857 223.131 665.851 223.405 L 665.851 229.205 L 660.711 224.025 C 660.516 223.828 660.197 223.828 660.001 224.025 C 659.809 224.223 659.809 224.537 660.001 224.735 L 665.151 229.875 L 659.351 229.875 C 659.077 229.88 658.857 230.101 658.851 230.375 C 658.851 230.651 659.075 230.875 659.351 230.875 L 665.151 230.875 L 660.001 236.025 C 659.809 236.223 659.809 236.537 660.001 236.735 C 660.201 236.921 660.511 236.921 660.711 236.735 L 665.851 231.585 L 665.851 237.375 C 665.851 237.651 666.075 237.875 666.351 237.875 C 666.627 237.875 666.851 237.651 666.851 237.375 L 666.851 231.585 L 672.001 236.735 C 672.201 236.921 672.511 236.921 672.711 236.735 C 672.903 236.537 672.903 236.223 672.711 236.025 L 667.561 230.875 L 673.351 230.875 C 673.627 230.875 673.851 230.651 673.851 230.375 C 673.835 230.11 673.616 229.904 673.351 229.905 Z" fill="#38d39f"/>
      <path d="M 694.351 229.905 L 688.561 229.905 L 693.711 224.765 C 693.903 224.567 693.903 224.253 693.711 224.055 C 693.516 223.858 693.197 223.858 693.001 224.055 L 687.851 229.205 L 687.851 223.405 C 687.851 223.129 687.627 222.905 687.351 222.905 C 687.077 222.91 686.857 223.131 686.851 223.405 L 686.851 229.205 L 681.711 224.025 C 681.516 223.828 681.197 223.828 681.001 224.025 C 680.809 224.223 680.809 224.537 681.001 224.735 L 686.151 229.875 L 680.351 229.875 C 680.077 229.88 679.857 230.101 679.851 230.375 C 679.851 230.651 680.075 230.875 680.351 230.875 L 686.151 230.875 L 681.001 236.025 C 680.809 236.223 680.809 236.537 681.001 236.735 C 681.201 236.921 681.511 236.921 681.711 236.735 L 686.851 231.585 L 686.851 237.375 C 686.851 237.651 687.075 237.875 687.351 237.875 C 687.627 237.875 687.851 237.651 687.851 237.375 L 687.851 231.585 L 693.001 236.735 C 693.201 236.921 693.511 236.921 693.711 236.735 C 693.903 236.537 693.903 236.223 693.711 236.025 L 688.561 230.875 L 694.351 230.875 C 694.627 230.875 694.851 230.651 694.851 230.375 C 694.835 230.11 694.616 229.904 694.351 229.905 Z" fill="#38d39f"/>
      <path d="M 715.351 229.905 L 709.561 229.905 L 714.711 224.765 C 714.903 224.567 714.903 224.253 714.711 224.055 C 714.516 223.858 714.197 223.858 714.001 224.055 L 708.851 229.205 L 708.851 223.405 C 708.851 223.129 708.627 222.905 708.351 222.905 C 708.077 222.91 707.857 223.131 707.851 223.405 L 707.851 229.205 L 702.711 224.025 C 702.516 223.828 702.197 223.828 702.001 224.025 C 701.809 224.223 701.809 224.537 702.001 224.735 L 707.151 229.875 L 701.351 229.875 C 701.077 229.88 700.857 230.101 700.851 230.375 C 700.851 230.651 701.075 230.875 701.351 230.875 L 707.151 230.875 L 702.001 236.025 C 701.809 236.223 701.809 236.537 702.001 236.735 C 702.201 236.921 702.511 236.921 702.711 236.735 L 707.851 231.585 L 707.851 237.375 C 707.851 237.651 708.075 237.875 708.351 237.875 C 708.627 237.875 708.851 237.651 708.851 237.375 L 708.851 231.585 L 714.001 236.735 C 714.201 236.921 714.511 236.921 714.711 236.735 C 714.903 236.537 714.903 236.223 714.711 236.025 L 709.561 230.875 L 715.351 230.875 C 715.627 230.875 715.851 230.651 715.851 230.375 C 715.835 230.11 715.616 229.904 715.351 229.905 Z" fill="#38d39f"/>
      <path d="M 736.351 229.905 L 730.561 229.905 L 735.711 224.765 C 735.903 224.567 735.903 224.253 735.711 224.055 C 735.516 223.858 735.197 223.858 735.001 224.055 L 729.851 229.205 L 729.851 223.405 C 729.851 223.129 729.627 222.905 729.351 222.905 C 729.077 222.91 728.857 223.131 728.851 223.405 L 728.851 229.205 L 723.711 224.025 C 723.516 223.828 723.197 223.828 723.001 224.025 C 722.809 224.223 722.809 224.537 723.001 224.735 L 728.151 229.875 L 722.351 229.875 C 722.077 229.88 721.857 230.101 721.851 230.375 C 721.851 230.651 722.075 230.875 722.351 230.875 L 728.151 230.875 L 723.001 236.025 C 722.809 236.223 722.809 236.537 723.001 236.735 C 723.201 236.921 723.511 236.921 723.711 236.735 L 728.851 231.585 L 728.851 237.375 C 728.851 237.651 729.075 237.875 729.351 237.875 C 729.627 237.875 729.851 237.651 729.851 237.375 L 729.851 231.585 L 735.001 236.735 C 735.201 236.921 735.511 236.921 735.711 236.735 C 735.903 236.537 735.903 236.223 735.711 236.025 L 730.561 230.875 L 736.351 230.875 C 736.627 230.875 736.851 230.651 736.851 230.375 C 736.835 230.11 736.616 229.904 736.351 229.905 Z" fill="#38d39f"/>
      <path d="M 757.351 229.905 L 751.561 229.905 L 756.711 224.765 C 756.903 224.567 756.903 224.253 756.711 224.055 C 756.516 223.858 756.197 223.858 756.001 224.055 L 750.851 229.205 L 750.851 223.405 C 750.851 223.129 750.627 222.905 750.351 222.905 C 750.077 222.91 749.857 223.131 749.851 223.405 L 749.851 229.205 L 744.711 224.025 C 744.516 223.828 744.197 223.828 744.001 224.025 C 743.809 224.223 743.809 224.537 744.001 224.735 L 749.151 229.875 L 743.351 229.875 C 743.077 229.88 742.857 230.101 742.851 230.375 C 742.851 230.651 743.075 230.875 743.351 230.875 L 749.151 230.875 L 744.001 236.025 C 743.809 236.223 743.809 236.537 744.001 236.735 C 744.201 236.921 744.511 236.921 744.711 236.735 L 749.851 231.585 L 749.851 237.375 C 749.851 237.651 750.075 237.875 750.351 237.875 C 750.627 237.875 750.851 237.651 750.851 237.375 L 750.851 231.585 L 756.001 236.735 C 756.201 236.921 756.511 236.921 756.711 236.735 C 756.903 236.537 756.903 236.223 756.711 236.025 L 751.561 230.875 L 757.351 230.875 C 757.627 230.875 757.851 230.651 757.851 230.375 C 757.835 230.11 757.616 229.904 757.351 229.905 Z" fill="#38d39f"/>
      <path d="M 778.351 229.905 L 772.561 229.905 L 777.711 224.765 C 777.903 224.567 777.903 224.253 777.711 224.055 C 777.516 223.858 777.197 223.858 777.001 224.055 L 771.851 229.205 L 771.851 223.405 C 771.851 223.129 771.627 222.905 771.351 222.905 C 771.077 222.91 770.857 223.131 770.851 223.405 L 770.851 229.205 L 765.711 224.025 C 765.516 223.828 765.197 223.828 765.001 224.025 C 764.809 224.223 764.809 224.537 765.001 224.735 L 770.151 229.875 L 764.351 229.875 C 764.077 229.88 763.857 230.101 763.851 230.375 C 763.851 230.651 764.075 230.875 764.351 230.875 L 770.151 230.875 L 765.001 236.025 C 764.809 236.223 764.809 236.537 765.001 236.735 C 765.201 236.921 765.511 236.921 765.711 236.735 L 770.851 231.585 L 770.851 237.375 C 770.851 237.651 771.075 237.875 771.351 237.875 C 771.627 237.875 771.851 237.651 771.851 237.375 L 771.851 231.585 L 777.001 236.735 C 777.201 236.921 777.511 236.921 777.711 236.735 C 777.903 236.537 777.903 236.223 777.711 236.025 L 772.561 230.875 L 778.351 230.875 C 778.627 230.875 778.851 230.651 778.851 230.375 C 778.835 230.11 778.616 229.904 778.351 229.905 Z" fill="#38d39f"/>
      <g transform="matrix(1, 0, 0, 1, -1574.76709, 179.973404)">
        <polygon points="2537.504 426.255 2525.245 426.254 2519.412 378.966 2537.507 378.967 2537.504 426.255" fill="#a0616a"/>
        <path d="M 2516.488 422.751 L 2540.131 422.751 C 2540.131 422.751 2540.131 422.751 2540.131 422.751 L 2540.131 437.638 C 2540.131 437.638 2540.131 437.638 2540.131 437.638 L 2501.601 437.638 C 2501.601 437.638 2501.601 437.638 2501.601 437.638 L 2501.601 437.638 C 2501.601 429.416 2508.266 422.751 2516.488 422.751 Z" fill="#2f2e41"/>
        <polygon points="2627.258 392.351 2618.2 400.614 2582.02 369.611 2595.388 357.416 2627.258 392.351" fill="#a0616a"/>
        <path d="M 2613.243 399.032 L 2636.887 399.032 C 2636.887 399.032 2636.887 399.032 2636.887 399.032 L 2636.887 413.919 C 2636.887 413.919 2636.887 413.919 2636.887 413.919 L 2598.357 413.919 C 2598.357 413.919 2598.357 413.919 2598.357 413.919 L 2598.357 413.919 C 2598.357 405.697 2605.022 399.032 2613.243 399.032 Z" fill="#2f2e41" transform="matrix(0.738773, -0.673955, 0.673955, 0.738773, 409.848343, 1870.341184)"/>
        <path d="M 2525.449 415.44 C 2523.212 415.447 2521.313 413.8 2521.005 411.584 L 2510.322 337.695 C 2509.789 334.01 2509.739 330.272 2510.171 326.574 L 2520.583 237.599 L 2587.081 243.183 L 2577.045 327.488 L 2615.011 374.828 C 2616.527 376.71 2616.282 379.454 2614.456 381.037 L 2604.897 389.362 C 2603.01 391.006 2600.146 390.795 2598.52 388.892 L 2562.546 346.795 C 2556.977 340.261 2552.97 332.546 2550.827 324.233 L 2545.691 304.204 C 2545.404 303.085 2544.014 302.697 2543.189 303.504 C 2543.023 303.667 2542.897 303.866 2542.821 304.086 L 2536.028 323.709 L 2540.325 410.141 C 2540.442 412.61 2538.549 414.714 2536.081 414.857 L 2525.708 415.433 C 2525.621 415.438 2525.535 415.44 2525.449 415.44 Z" fill="#2f2e41"/>
        <circle cx="2562.401" cy="92.807" r="24.561" fill="#a0616a"/>
        <path d="M 2419.744 121.362 C 2422.258 127.096 2429.344 129.163 2434.546 125.681 L 2466.75 145.191 L 2464.247 128.691 L 2436.989 111.076 C 2432.242 104.908 2422.599 106.192 2419.631 113.387 C 2418.574 115.949 2418.615 118.832 2419.744 121.362 Z" fill="#a0616a"/>
        <path d="M 2561.261 254.582 L 2561.261 254.582 C 2548.216 254.583 2534.641 250.536 2520.913 242.553 C 2518.807 241.331 2517.889 238.768 2518.742 236.488 L 2531.511 202.081 L 2528.606 161.541 C 2527.619 147.75 2534.494 134.66 2546.122 128.191 C 2554.572 123.45 2564.732 122.848 2573.683 126.56 C 2583.283 130.602 2590.499 138.825 2593.259 148.87 L 2597.358 163.13 C 2602.329 180.573 2601.757 199.129 2595.72 216.232 L 2583.845 249.573 L 2583.537 249.757 C 2583.456 249.806 2575.307 254.581 2561.261 254.582 Z" style="fill: rgb(255, 56, 56);"/>
        <path d="M 2436.792 132.808 C 2435.657 131.103 2435.679 128.878 2436.845 127.195 L 2443.068 118.206 C 2444.504 116.139 2447.251 115.459 2449.485 116.617 L 2495.636 140.617 L 2546.557 135.513 C 2553.159 134.885 2559.319 138.9 2561.411 145.193 C 2564.379 154.277 2557.668 163.629 2548.111 163.726 L 2500.626 164.208 C 2495.628 164.256 2490.701 163.02 2486.317 160.619 L 2438.552 134.425 C 2437.843 134.035 2437.24 133.481 2436.792 132.808 Z" style="fill: rgb(255, 56, 56);"/>
        <path d="M 2583.567 276.564 C 2588.486 272.691 2588.707 265.314 2584.03 261.152 L 2596.024 228.137 L 2579.484 231.648 L 2569.28 262.456 C 2564.502 268.6 2568.167 277.612 2575.876 278.677 C 2578.621 279.057 2581.401 278.293 2583.567 276.564 Z" fill="#a0616a"/>
        <path d="M 2587.969 257.362 C 2587.383 257.363 2586.802 257.259 2586.251 257.057 L 2575.988 253.29 C 2573.627 252.42 2572.278 249.932 2572.838 247.478 L 2584.478 196.779 L 2566.749 148.772 C 2564.481 142.54 2566.82 135.567 2572.387 131.964 C 2580.436 126.809 2591.173 130.956 2593.667 140.183 L 2606.059 186.024 C 2607.361 190.85 2607.403 195.929 2606.18 200.776 L 2592.822 253.589 C 2592.261 255.809 2590.263 257.363 2587.974 257.362 L 2587.969 257.362 Z" style="fill: rgb(255, 56, 56);"/>
        <path d="M 2564.024 110.137 C 2565.269 104.969 2565.884 102.068 2567.118 96.897 C 2567.945 93.434 2565.451 89.888 2562.323 88.269 C 2559.194 86.651 2555.568 86.465 2552.073 86.123 C 2548.577 85.78 2544.911 85.169 2542.186 82.921 C 2538.529 79.902 2537.483 74.279 2539.282 69.857 C 2541.242 65.446 2545.224 62.262 2549.958 61.32 C 2554.641 60.464 2559.476 61.208 2563.685 63.434 C 2565.333 59.56 2570.111 57.876 2574.216 58.552 C 2578.32 59.227 2581.885 61.719 2585.221 64.238 C 2591.425 68.921 2597.791 74.599 2599.167 82.32 C 2600.497 89.776 2596.715 97.301 2591.656 102.875 C 2584.753 110.455 2575.492 115.481 2565.374 117.137 C 2564.013 115.076 2563.527 112.557 2564.024 110.137 Z"/>
        <path d="M 2658.447 438.726 L 2466.447 438.726 C 2465.677 438.726 2465.196 437.893 2465.581 437.226 C 2465.76 436.917 2466.09 436.726 2466.447 436.726 L 2658.447 436.726 C 2659.217 436.726 2659.698 437.559 2659.313 438.226 C 2659.135 438.535 2658.804 438.726 2658.447 438.726 Z" fill="#ccc"/>
      </g>
    </g>
  </g>
</svg>