<?xml version="1.0" encoding="utf-8"?>
<svg viewBox="0 0 500 500" xmlns="http://www.w3.org/2000/svg">
  <title>mobile login</title>
  <g transform="matrix(1, 0, 0, 1, 207.891907, -3.584329)">
    <path d="M -78.015 332.105 L -183.279 332.105 L -183.279 311.657 L -78.015 311.657 Z M -181.912 330.785 L -79.382 330.785 L -79.382 312.977 L -181.912 312.977 Z" fill="#3f3d56"/>
    <circle cx="1130.068" cy="295.781" r="10" fill="#6c63ff" transform="matrix(0.683536, 0, 0, 0.659581, -863.444153, 126.789505)"/>
    <circle cx="1102.068" cy="295.781" r="10" fill="#6c63ff" transform="matrix(0.683536, 0, 0, 0.659581, -863.444153, 126.789505)"/>
    <circle cx="1074.068" cy="295.781" r="10" fill="#6c63ff" transform="matrix(0.683536, 0, 0, 0.659581, -863.444153, 126.789505)"/>
    <circle cx="1046.068" cy="295.781" r="10" fill="#6c63ff" transform="matrix(0.683536, 0, 0, 0.659581, -863.444153, 126.789505)"/>
    <circle cx="1018.068" cy="295.781" r="10" fill="#6c63ff" transform="matrix(0.683536, 0, 0, 0.659581, -863.444153, 126.789505)"/>
    <rect x="130.059" y="346.883" width="84.758" height="17.149" fill="#6c63ff"/>
    <rect x="105.872" y="268.243" width="124.404" height="15.83" fill="#f0f0f0"/>
    <rect y="442.126" width="531.791" height="1.319" fill="#3f3d56" x="-240.118"/>
    <path d="M 251.592 443.032 L 96.176 443.032 C 86.058 443.021 77.858 435.109 77.847 425.346 L 77.847 146.757 C 77.858 136.994 86.058 129.082 96.176 129.071 L 251.592 129.071 C 261.71 129.082 269.91 136.994 269.92 146.757 L 269.92 425.346 C 269.909 435.109 261.71 443.021 251.592 443.032 Z M 96.176 130.39 C 86.813 130.401 79.225 137.722 79.214 146.757 L 79.214 425.346 C 79.225 434.381 86.813 441.702 96.176 441.713 L 251.592 441.713 C 260.955 441.702 268.543 434.381 268.553 425.346 L 268.553 146.757 C 268.543 137.722 260.955 130.401 251.592 130.39 Z" fill="#3f3d56"/>
    <path d="M 155.428 142.263 C 152.272 142.263 150.298 138.965 151.877 136.327 C 153.455 133.688 157.402 133.688 158.98 136.327 C 159.34 136.928 159.529 137.611 159.529 138.305 C 159.527 140.49 157.693 142.26 155.428 142.263 Z M 155.428 135.667 C 153.324 135.667 152.008 137.865 153.06 139.624 C 154.113 141.384 156.744 141.384 157.797 139.624 C 158.037 139.223 158.162 138.768 158.162 138.305 C 158.161 136.849 156.938 135.668 155.428 135.667 Z" fill="#3f3d56"/>
    <rect x="165.681" y="137.646" width="30.076" height="1.319" fill="#3f3d56"/>
    <path d="M 257.617 148.199 L 257.617 200.965 C 227.418 200.964 202.935 177.341 202.934 148.199 Z" fill="#6c63ff"/>
    <path d="M 258.3 425.223 L 89.467 425.223 L 89.467 147.539 L 258.3 147.539 Z M 90.834 423.904 L 256.933 423.904 L 256.933 148.859 L 90.834 148.859 Z" fill="#3f3d56"/>
    <rect x="96.986" y="158.752" width="25.974" height="9.234" fill="#3f3d56"/>
    <rect x="111.34" y="246.477" width="25.974" height="9.234" fill="#3f3d56"/>
    <path d="M 237.111 280.775 L 111.34 280.775 L 111.34 263.626 L 237.111 263.626 Z M 112.707 279.456 L 235.744 279.456 L 235.744 264.945 L 112.707 264.945 Z" fill="#3f3d56"/>
    <rect x="105.872" y="318.371" width="124.404" height="15.83" fill="#f0f0f0"/>
    <rect x="111.34" y="296.605" width="25.974" height="9.234" fill="#3f3d56"/>
    <path d="M 237.111 330.903 L 111.34 330.903 L 111.34 313.754 L 237.111 313.754 Z M 112.707 329.584 L 235.744 329.584 L 235.744 315.073 L 112.707 315.073 Z" fill="#3f3d56"/>
    <path d="M 217.288 365.861 L 131.163 365.861 L 131.163 347.393 L 217.288 347.393 Z M 132.53 364.542 L 215.921 364.542 L 215.921 348.712 L 132.53 348.712 Z" fill="#3f3d56"/>
    <circle cx="1127.522" cy="296.408" r="10" fill="#6c63ff" transform="matrix(0.854849, 0, 0, 0.783563, -924.011353, 12.069047)" style=""/>
    <g id="Group_47" data-name="Group 47" transform="matrix(1, 0, 0, 1, 12.986847, -100.792717)">
      <g id="Group_43" data-name="Group 43" transform="matrix(0.315666, 0, 0, 0.296607, -273.691772, 137.431793)" style="">
        <rect id="Rectangle_113" data-name="Rectangle 113" width="94.644" height="1.803" transform="translate(805.32 327.084)" fill="#ccc"/>
        <rect id="Rectangle_114" data-name="Rectangle 114" width="300.158" height="1.803" transform="translate(431.249 327.084)" fill="#ccc"/>
        <circle id="Ellipse_115" data-name="Ellipse 115" cx="36.956" cy="36.956" r="36.956" transform="translate(394.293 291.029)" fill="#6c63ff"/>
        <circle id="Ellipse_116" data-name="Ellipse 116" cx="36.956" cy="36.956" r="36.956" transform="translate(562.85 291.029)" fill="#3f3d56"/>
        <path id="Path_748" data-name="Path 748" d="M873,259.344a37.858,37.858,0,1,1,37.858-37.858A37.858,37.858,0,0,1,873,259.344Zm0-73.913a36.055,36.055,0,1,0,36.055,36.055A36.055,36.055,0,0,0,873,185.431Z" transform="translate(-104.641 106.5)" fill="#ccc"/>
        <path id="Path_749" data-name="Path 749" d="M1060,259.344a37.858,37.858,0,1,1,37.858-37.858A37.858,37.858,0,0,1,1060,259.344Zm0-73.913a36.055,36.055,0,1,0,36.055,36.055A36.055,36.055,0,0,0,1060,185.431Z" transform="translate(-123.084 106.5)" fill="#ccc"/>
        <path id="Path_395" data-name="Path 395" d="M304.255,236.95a2.993,2.993,0,0,1-1.8-.6l-.032-.024-6.783-5.188a3.014,3.014,0,0,1,3.668-4.784l4.393,3.369,10.381-13.544a3.013,3.013,0,0,1,4.224-.558h0l-.064.089.066-.089a3.016,3.016,0,0,1,.557,4.225l-12.211,15.923a3.015,3.015,0,0,1-2.4,1.175Z" transform="translate(124.149 102.054)" fill="#fff"/>
      </g>
      <path id="Path_439" data-name="Path 439" d="M267.682,718.34c-1.31-9.542-2.657-19.206-1.738-28.85.816-8.565,3.429-16.93,8.749-23.789a39.574,39.574,0,0,1,10.153-9.2c1.015-.641,1.95.968.939,1.606A37.622,37.622,0,0,0,270.9,676.062c-3.24,8.241-3.76,17.224-3.2,25.977.338,5.294,1.053,10.553,1.774,15.805a.964.964,0,0,1-.65,1.144.936.936,0,0,1-1.144-.65Z" transform="translate(95.868 55.076)" fill="#f2f2f2"/>
      <g id="Group_46" data-name="Group 46" transform="translate(2 7)">
        <g id="Group_45" data-name="Group 45"/>
      </g>
    </g>
    <g transform="matrix(1, 0, 0, 1, -1030.498657, -150.542389)">
      <g id="a4cc79cd-ea29-44e8-8b1f-c84c9f36b99b" data-name="Group 29" transform="matrix(0.741777, 0, 0, 0.794548, 546.555725, 127.550888)" style="">
        <circle id="f2334603-0630-41b1-8883-db91ebd0df1d" data-name="Ellipse 109" cx="596.063" cy="262.787" r="24.561" style="fill: rgb(234, 209, 147);"/>
        <path id="a98f854d-ddd1-49f9-826e-9b3b51c42b30" data-name="Path 704" d="M 688.932 333.748 C 688.542 334.141 688.183 334.563 687.86 335.012 L 638.298 333.261 L 632.629 322.63 L 615.467 329.088 L 623.673 348.888 C 625.034 352.173 628.401 354.165 631.936 353.777 L 688.021 347.619 C 692.96 354.017 702.974 352.669 706.045 345.192 C 709.116 337.715 702.941 329.717 694.931 330.796 C 692.662 331.102 690.556 332.14 688.932 333.753 Z" style="fill: rgb(234, 209, 147);"/>
        <path id="f257447d-301d-44a2-8e09-7759e64535dc" data-name="Path 705" d="M 608.865 338.648 C 607.587 338.075 606.622 336.974 606.222 335.631 L 599.322 312.462 C 594.929 303.148 602.267 292.572 612.529 293.425 C 617.3 293.822 621.495 296.737 623.53 301.07 L 623.53 301.07 L 636.902 321.305 C 638.523 323.759 637.586 327.081 634.921 328.325 L 612.88 338.614 C 611.611 339.208 610.146 339.219 608.869 338.644 Z" style="fill: rgb(174, 171, 238);"/>
        <path id="becfa795-45e6-4313-bdd8-8732b5eb4129" data-name="Path 706" d="M 657.68 573.875 L 668.448 568.013 L 650.963 523.691 L 635.071 532.342 Z" style="fill: rgb(234, 209, 147);"/>
        <path id="e8c8979c-fc56-471c-a205-c14c5d72c2f7" data-name="Path 707" d="M 653.02 571.854 L 674.225 560.31 L 674.225 560.31 C 681.688 556.248 691.032 559.004 695.094 566.468 L 695.095 566.468 L 695.334 566.907 L 660.614 585.807 Z" fill="#2f2e41"/>
        <path id="ab11d9ef-02df-4748-a171-c660a3aec0b0" data-name="Path 708" d="M 539.193 573.923 L 551.452 573.923 L 557.285 526.635 L 539.185 526.635 Z" style="fill: rgb(234, 209, 147);"/>
        <path id="af78ce6e-a300-42ae-85b6-279af7ebed37" data-name="Path 709" d="M 536.065 569.921 L 560.21 569.921 C 568.707 569.921 575.596 576.81 575.596 585.307 L 575.596 585.808 L 536.066 585.808 Z" fill="#2f2e41"/>
        <path id="b8635a3a-781b-4583-ae1f-43c79305ccfd" data-name="Path 710" d="M 615.374 364.048 L 619.374 412.048 L 663.993 545.904 C 664.691 548 663.559 550.265 661.463 550.964 C 661.352 551.001 661.239 551.033 661.125 551.06 L 647.45 554.316 C 645.646 554.746 643.784 553.881 642.95 552.225 L 585.907 439.068 C 585.213 437.694 583.292 437.585 582.448 438.873 C 582.315 439.076 582.22 439.302 582.168 439.539 L 557.068 553.901 C 556.665 555.736 555.039 557.043 553.161 557.043 L 540.435 557.043 C 538.229 557.047 536.438 555.263 536.434 553.058 C 536.434 553.035 536.434 553.012 536.435 552.989 C 537.601 473.689 533.755 383.336 564.371 369.043 L 569.371 356.043 Z" style="fill: rgb(18, 18, 25);"/>
        <path id="e573b899-9021-4f9b-8786-b9ea4c0ab316" data-name="Path 711" d="M 567.934 359.448 L 562.78 328.271 C 561.045 317.881 564.728 307.323 572.549 300.265 C 580.193 293.275 590.873 290.665 600.88 293.34 C 601.172 293.418 601.465 293.499 601.758 293.581 C 614.166 297.136 623.038 308.055 623.98 320.927 C 624.964 334.467 624.08 354.111 614.302 370.797 L 614.112 371.121 Z" style="fill: rgb(174, 171, 238);"/>
        <path id="a038711e-9241-43ca-acb8-65ac7fef7c62" data-name="Path 714" d="M 533.28 431.839 C 528.939 426.751 530.252 418.976 536.023 415.596 L 557.328 320.096 L 578.941 328.967 L 551.204 420.048 C 554.937 427.476 549.23 436.161 540.93 435.68 C 537.959 435.508 535.192 434.119 533.28 431.839 Z" style="fill: rgb(234, 209, 147);"/>
        <path id="a8e2c108-97db-4287-b949-04189b24fe3b" data-name="Path 715" d="M 548.889 333.798 C 548.199 332.577 548.077 331.117 548.553 329.798 L 556.746 307.053 C 558.747 296.951 570.934 292.805 578.681 299.589 C 582.277 302.737 583.92 307.565 582.991 312.253 L 582.991 312.253 L 581.746 336.475 C 581.595 339.413 578.869 341.53 575.986 340.95 L 552.136 336.15 C 550.762 335.874 549.577 335.014 548.89 333.793 Z" style="fill: rgb(174, 171, 238);"/>
      </g>
      <path d="M 959.006 340.623 C 961.822 349.682 973.389 352.295 979.826 345.327 C 980.524 344.571 976.164 344.226 976.653 343.32 C 967.183 330.938 980.268 322.664 995.652 316.779 C 998.022 312.38 997.498 306.985 994.327 303.124 C 985.739 302.026 977.114 304.865 970.857 310.85 L 970.85 310.858 L 959.92 331.131 C 958.347 334.042 958.018 337.465 959.006 340.623 Z" fill="#2f2e41"/>
      <path d="M 983.682 340.436 C 986.498 349.495 998.065 352.108 1004.502 345.14 C 1005.2 344.384 1011.036 337.891 1011.525 336.985 C 1002.055 324.603 1002.251 320.07 1017.635 314.185 C 1020.004 309.786 1022.173 306.798 1019.003 302.937 C 1010.415 301.839 1001.79 304.678 995.533 310.663 L 995.526 310.671 L 984.596 330.944 C 983.023 333.855 982.694 337.278 983.682 340.436 Z" fill="#2f2e41" transform="matrix(-0.533829, 0.845592, -0.845592, -0.533829, 1812.260162, -347.277987)"/>
    </g>
  </g>
  <rect x="468" y="48" width="52" height="52" fill="#f0f0f0" transform="matrix(1, 0, 0, 1, 145.492478, -152.48498)"/>
  <g id="a8ec7779-81bc-4fb5-bea3-5b8fa1590d68" data-name="Group 28" transform="matrix(1, 0, 0, 1, 530.632769, 50.301617)"/>
  <title>mobile login</title>
  <rect x="468" y="48" width="52" height="52" fill="#f0f0f0" transform="matrix(1, 0, 0, 1, 945.360566, 53.196685)"/>
</svg>